<svg xmlns="http://www.w3.org/2000/svg" viewBox="0 0 160 110"><rect width="160" height="110" rx="16" fill="#eef7f6"/><rect x="88" y="22" width="48" height="64" rx="8" fill="#12343b"/><rect x="96" y="31" width="32" height="8" rx="4" fill="#fff"/><rect x="96" y="47" width="24" height="6" rx="3" fill="#9ee7df"/><rect x="96" y="61" width="28" height="6" rx="3" fill="#fbbf24"/><circle cx="48" cy="36" r="16" fill="#0f766e"/><path d="M22 92c4-25 14-38 30-38s26 13 30 38H22Z" fill="#087f8c"/><path d="M39 55h18v37H39z" fill="#fff"/><path d="M48 65v16M40 73h16" stroke="#0f766e" stroke-width="5" stroke-linecap="round"/><circle cx="76" cy="44" r="12" fill="#d97706"/><path d="M58 92c3-20 11-30 22-30s19 10 22 30H58Z" fill="#f59e0b"/><path d="M105 85c10-5 18-5 28 0" stroke="#22c55e" stroke-width="5" stroke-linecap="round"/></svg>
