<svg xmlns="http://www.w3.org/2000/svg" viewBox="0 0 120 90"><rect width="120" height="90" rx="14" fill="#f8fafc"/><rect x="18" y="44" width="84" height="18" rx="7" fill="#475569"/><path d="M29 42h62c6 0 11 5 11 11H18c0-6 5-11 11-11Z" fill="#cbd5e1"/><circle cx="39" cy="28" r="9" fill="#0f766e"/><path d="M24 64c3-17 9-26 18-26s15 9 18 26H24Z" fill="#0f766e"/><circle cx="79" cy="28" r="9" fill="#d97706"/><path d="M64 64c3-17 9-26 18-26s15 9 18 26H64Z" fill="#d97706"/><path d="M54 22h12M60 16v12" stroke="#475569" stroke-width="4" stroke-linecap="round"/></svg>
